<svg xmlns="http://www.w3.org/2000/svg"
     version="1.1"
     width="64"
     height="64">
  <style type="text/css">
    .bg {
      fill: #c00;
    }
    .glyph {
      fill: #fff;
    }
  </style>
  <path class="bg"
        d="M 56,32 A 24,24 0 1 1 8,32 24,24 0 1 1 56,32 z" />
  <path class= "glyph"
        d="m 32,16 c -8.836556,0 -16,7.163444 -16,16 0,8.836556 7.163444,16 16,16 8.836556,0 16,-7.163444 16,-16 0,-8.836556 -7.163444,-16 -16,-16 z m 0,3.2 c 7.069245,0 12.8,5.730755 12.8,12.8 0,7.069245 -5.730755,12.8 -12.8,12.8 -7.069245,0 -12.8,-5.730755 -12.8,-12.8 0,-7.069245 5.730755,-12.8 12.8,-12.8 z"/>
  <path class="glyph"
        d="m 30,24 4,0 0,10 6,-2 -8,8 -8,-8 6,2 z"/>
</svg>
