<?xml version="1.0" encoding="UTF-8"?>
<svg xmlns="http://www.w3.org/2000/svg"
     version="1.1"
     width="64"
     height="64">
  <style type="text/css">
    .bg {
      fill: #c00;
    }
    .glyph {
      fill: #fff;
    }
  </style>
  <path class="bg"
        d="M 56,32 A 24,24 0 1 1 8,32 24,24 0 1 1 56,32 z" />
  <path class="glyph"
        d="m 27.997114,45.000001 c -5.500001,-1.812 -9.484001,-6.937 -9.484001,-13.000001 0,-7.453 6.046,-13.5 13.500001,-13.5 7.436999,0 13.484,6.047 13.484,13.5 0,6.063001 -4,11.203001 -9.516001,13.000001 l 0,-2.547 c 3.938,0.890999 4.766001,-1.844002 4.766001,-1.844002 0.625,-1.608999 1.530999,-2.030998 1.530999,-2.030998 1.265999,-0.859001 -0.093,-0.844001 -0.093,-0.844001 -1.390999,0.094 -2.124999,1.422001 -2.124999,1.422001 -1.313,2.25 -3.485001,1.438 -4.157,1.11 -0.203,-0.985 -0.969,-1.188 -1.219001,-1.266001 3.547,-0.375 7.344001,-1.655999 7.344001,-7.797 0,-1.718999 -0.608999,-3.125 -1.609001,-4.219001 0.156001,-0.405998 0.703,-1.999999 -0.156,-4.170998 0,0 -1.327999,-0.422001 -4.329,1.609 -1.25,-0.344001 -2.593,-0.516001 -3.936999,-0.531001 -1.328001,0.015 -2.672001,0.187 -3.938001,0.531001 -3,-2.031001 -4.312,-1.609 -4.312,-1.609 -0.858999,2.170999 -0.328001,3.765 -0.155999,4.170998 -1.016001,1.094001 -1.625,2.500002 -1.625,4.219001 0,6.141001 3.796999,7.406 7.342999,7.781 -0.64,0.438001 -1.311999,1.266 -1.311999,2.844 l 0,3.172001 z M 16.013113,32 c 0,8.844001 7.156,16 16.000001,16 8.828,0 15.984,-7.155999 15.984,-16 0,-8.828 -7.156,-16 -15.984,-16 -8.844001,0 -16.000001,7.172 -16.000001,16"/>
</svg>
