<?xml version="1.0" encoding="UTF-8"?>
<svg xmlns="http://www.w3.org/2000/svg"
     version="1.1"
     width="64"
     height="64">
  <style type="text/css">
    .bg {
      fill: #c00;
    }
    .glyph {
      fill: #fff;
    }
  </style>
  <path class="bg"
        d="M 56,32 A 24,24 0 1 1 8,32 24,24 0 1 1 56,32 z" />
  <path class="glyph"
        d="m 45.019767,25.25662 c -2.5e-5,1.9905 -0.36263,3.927 -1.087816,5.8094 -0.725234,1.8825 -1.689609,3.5103 -2.893128,4.8836 -1.280711,1.4967 -2.723415,2.6463 -4.328119,3.4486 -1.604736,0.8024 -3.248031,1.2036 -4.929889,1.2036 -1.357851,0 -2.545961,-0.1621 -3.564333,-0.4861 -1.002958,-0.3086 -1.797603,-0.7175 -2.383937,-1.2267 l -2.453372,11.3874 -4.328119,0 4.999325,-22.9367 c 0.354885,-1.6665 0.85636,-3.1169 1.504426,-4.3513 0.663484,-1.2498 1.589284,-2.4225 2.777402,-3.5181 1.080092,-1.0029 2.329922,-1.7204 3.749493,-2.1524 1.434978,-0.4475 2.931688,-0.6712 4.490134,-0.6712 2.576793,0 4.628983,0.7483 6.156576,2.245 1.527547,1.4968 2.291332,3.6184 2.291357,6.3649 m -7.105522,8.9803 c 0.771482,-1.4659 1.350107,-3.0552 1.735877,-4.7679 0.40116,-1.7282 0.60175,-3.5103 0.601771,-5.3465 -2.1e-5,-1.2344 -0.131176,-2.2296 -0.393466,-2.9857 -0.26233,-0.7561 -0.60179,-1.3424 -1.018381,-1.759 -0.416628,-0.432 -0.887243,-0.7175 -1.411846,-0.8564 -0.524637,-0.1543 -1.033827,-0.2314 -1.527571,-0.2314 -0.740656,0 -1.435006,0.1234 -2.083052,0.3703 -0.648074,0.2314 -1.265274,0.5941 -1.851602,1.0878 -0.817802,0.6944 -1.473576,1.5893 -1.967326,2.6848 -0.47834,1.0801 -0.94124,2.4534 -1.388702,4.1198 -0.262318,0.9413 -0.470623,1.7359 -0.624915,2.384 -0.138878,0.6326 -0.277748,1.2498 -0.41661,1.8516 -0.231458,1.0338 -0.393473,1.8284 -0.486046,2.3839 -0.09259,0.5401 -0.223742,1.2035 -0.393465,1.9905 0.216013,0.9103 0.732918,1.7821 1.550716,2.6154 0.833212,0.8178 1.998177,1.2266 3.494898,1.2266 1.265248,0 2.430213,-0.4474 3.494898,-1.3424 1.080085,-0.8949 1.975025,-2.0367 2.684822,-3.4254"/>
</svg>
